<svg id="Capa_1" enable-background="new 0 0 512 512" height="512" viewBox="0 0 512 512" width="512" xmlns="http://www.w3.org/2000/svg"><g><g><circle cx="255.995" cy="97.008" fill="#fdd79b" r="89.521"/></g><g><path d="m345.514 97.009c0 49.441-40.078 89.519-89.519 89.519-11.569 0-22.639-2.196-32.791-6.199 4.192.609 8.475.918 12.827.918 49.441 0 89.519-40.078 89.519-89.519 0-37.862-23.508-70.234-56.728-83.32 43.362 6.219 76.692 43.512 76.692 88.601z" fill="#fccd7f"/></g><g><circle cx="255.995" cy="97.008" fill="#fef1da" r="59.096"/></g><g><path d="m315.088 97.009c0 32.641-26.452 59.094-59.094 59.094-10.96 0-21.222-2.975-30.016-8.175 3.144.519 6.379.789 9.673.789 32.641 0 59.094-26.462 59.094-59.104 0-21.671-11.669-40.627-29.078-50.908 28.04 4.611 49.421 28.957 49.421 58.304z" fill="#fae2c0"/></g><g><path d="m294.766 213.907 22.448 285.051c.247 3.136 2.864 5.555 6.009 5.555h130.048c3.146 0 5.763-2.419 6.009-5.555l22.448-285.051c.276-3.505-2.494-6.501-6.009-6.501h-174.943c-3.516 0-6.286 2.996-6.01 6.501z" fill="#fef1da"/></g><g><path d="m481.728 213.908-22.45 285.047c-.24 3.144-2.865 5.56-6.009 5.56h-20.124c3.144 0 5.76-2.416 6.009-5.56l22.44-285.047c.279-3.504-2.486-6.498-6.009-6.498h20.134c3.514 0 6.289 2.995 6.009 6.498z" fill="#fae2c0"/></g><g><path d="m478.801 251.143-17.094 217.016h-146.912l-17.094-217.016z" fill="#8ac9fe"/></g><g><path d="m478.804 251.141-17.1 217.02h-20.123l17.079-217.02z" fill="#60b7ff"/></g><g><path d="m30.79 467.038 4.088 11.843c5.295 15.34 19.737 25.633 35.966 25.633h256.376c16.228 0 30.67-10.293 35.966-25.633l5.473-15.854c1.539-4.459-1.773-9.106-6.49-9.106h-322.03c-6.795-.001-11.566 6.694-9.349 13.117z" fill="#80d261"/></g><g><path d="m368.662 463.03-5.48 15.852c-5.29 15.342-19.734 25.634-35.965 25.634h-22.22c16.231 0 30.675-10.292 35.965-25.634l5.47-15.852c1.537-4.462-1.767-9.113-6.488-9.113h22.23c4.711-.001 8.025 4.651 6.488 9.113z" fill="#68ca44"/></g><g><path d="m316.237 453.92c7.535-4.507 11.909-13.32 10.293-22.481-1.499-8.502-7.742-14.958-15.524-17.168-.849-.241-1.206-1.222-.711-1.952 4.54-6.695 5.173-15.654.857-23.13s-12.391-11.408-20.46-10.823c-.88.064-1.551-.736-1.335-1.592 1.977-7.845-.493-16.479-7.106-22.029-6.613-5.549-15.546-6.482-22.928-3.173-.805.361-1.709-.161-1.799-1.039-.826-8.048-6.099-15.317-14.212-18.27-8.112-2.953-16.825-.774-22.63 4.86-.633.614-1.661.433-2.046-.361-3.528-7.28-10.97-12.307-19.603-12.307s-16.075 5.027-19.603 12.307c-.385.794-1.413.975-2.046.361-5.805-5.634-14.518-7.813-22.63-4.86s-13.386 10.222-14.212 18.27c-.09.878-.994 1.4-1.799 1.039-7.382-3.309-16.315-2.376-22.928 3.173s-9.083 14.184-7.106 22.029c.216.855-.456 1.655-1.335 1.592-8.069-.584-16.143 3.347-20.46 10.823-4.316 7.476-3.684 16.435.857 23.13.495.73.138 1.711-.711 1.952-7.782 2.211-14.025 8.666-15.524 17.168-1.615 9.161 2.758 17.974 10.293 22.481z" fill="#fef1da"/></g><g><path d="m326.528 431.437c-1.497-8.505-7.736-14.953-15.522-17.169-.848-.24-1.208-1.218-.709-1.947 4.542-6.698 5.171-15.662.858-23.138-4.322-7.467-12.398-11.399-20.463-10.821-.878.07-1.547-.739-1.338-1.587 1.976-7.846-.489-16.48-7.107-22.03-6.608-5.55-15.542-6.478-22.929-3.174-.799.359-1.707-.16-1.797-1.038-.829-8.046-6.099-15.312-14.214-18.267-8.105-2.955-16.82-.779-22.629 4.861-.629.609-1.657.429-2.046-.359-3.524-7.287-10.97-12.308-19.605-12.308-8.624 0-16.071 5.021-19.595 12.308-.01.01-.01.03-.02.04.958-.13 1.957.045 2.915-.2 20.676-5.273 30.071 8.881 33.605 16.168.379.789 1.407.968 2.046.359 5.8-5.64 12.305-9.394 20.409-6.427 5.807 2.125 10.735 9.253 10.263 18.046-.047.882.988 1.397 1.797 1.038 7.387-3.304 13.639-3.059 19.746 3.048 5.169 5.169 4.437 12.238 2.461 20.084-.22.858.449 1.657 1.338 1.587 8.065-.579 16.141 3.354 20.453 10.83 4.322 7.477 3.683 16.43-.858 23.128-.489.729-.13 1.707.719 1.946 7.776 2.216 10.915 6.768 11.421 15.378.417 7.093-2.921 12.122-2.921 12.122h13.43c7.537-4.501 11.909-13.315 10.292-22.478z" fill="#fae2c0"/></g><g><path d="m255.995 194.015c53.49 0 97.007-43.517 97.007-97.007 0-53.491-43.518-97.008-97.007-97.008-22.764 0-44.891 8.045-62.307 22.653-3.168 2.656-3.583 7.379-.925 10.546 2.656 3.168 7.379 3.582 10.546.925 14.724-12.35 33.435-19.151 52.685-19.151 45.234 0 82.034 36.801 82.034 82.035s-36.8 82.034-82.034 82.034-82.034-36.8-82.034-82.034c0-13.361 3.281-26.619 9.49-38.339 1.935-3.655.542-8.185-3.112-10.12-3.653-1.935-8.183-.541-10.12 3.112-7.347 13.872-11.231 29.553-11.231 45.348.001 53.489 43.518 97.006 97.008 97.006z"/><path d="m255.995 163.59c36.713 0 66.583-29.869 66.583-66.582 0-36.714-29.869-66.583-66.583-66.583-36.713 0-66.582 29.869-66.582 66.583 0 36.713 29.868 66.582 66.582 66.582zm0-118.192c28.458 0 51.609 23.153 51.609 51.61 0 28.458-23.152 51.609-51.609 51.609-28.458 0-51.609-23.152-51.609-51.609-.001-28.458 23.151-51.61 51.609-51.61z"/><path d="m251.813 100.734 10.642 8.625c1.387 1.125 3.053 1.671 4.709 1.671 2.18 0 4.342-.948 5.821-2.772 2.604-3.213 2.111-7.927-1.102-10.53l-7.869-6.378v-21.322c0-4.135-3.352-7.487-7.487-7.487s-7.486 3.351-7.486 7.487v24.89c0 2.258 1.018 4.394 2.772 5.816z"/><path d="m485.645 204.26c-2.55-2.759-6.168-4.341-9.925-4.341h-174.945c-3.756 0-7.373 1.582-9.923 4.341s-3.844 6.489-3.548 10.234l12.384 157.26c-.714-.184-1.433-.351-2.164-.481-.015-8.496-3.727-16.613-10.462-22.265-6.736-5.653-15.374-7.9-23.744-6.437-2.919-7.98-9.184-14.337-17.446-17.345-8.264-3.007-17.148-2.163-24.513 2.072-5.473-6.499-13.533-10.331-22.327-10.331-8.793 0-16.852 3.831-22.326 10.331-7.365-4.237-16.25-5.081-24.514-2.072-8.262 3.007-14.526 9.364-17.446 17.345-8.37-1.461-17.008.785-23.744 6.437-6.737 5.653-10.448 13.769-10.462 22.266-8.365 1.49-15.714 6.555-20.11 14.17s-5.109 16.511-2.216 24.501c-7.353 4.261-12.525 11.533-14.051 20.193-.986 5.591-.257 11.233 1.854 16.295h-25.878c-5.606 0-10.896 2.726-14.15 7.292-3.254 4.565-4.105 10.456-2.276 15.756l4.088 11.843c6.334 18.349 23.631 30.676 43.043 30.676h182.294c4.135 0 7.486-3.351 7.486-7.487 0-4.135-3.351-7.487-7.486-7.487h-182.294c-13.028 0-24.637-8.274-28.888-20.589l-4.088-11.843c-.352-1.019.046-1.803.315-2.18.268-.377.88-1.009 1.957-1.009h321.159l-5.19 15.031c-4.251 12.315-15.86 20.589-28.888 20.589h-39.2c-4.135 0-7.486 3.352-7.486 7.487s3.351 7.487 7.486 7.487h165.252c7.004 0 12.922-5.47 13.473-12.453l22.448-285.052c.294-3.745-.999-7.475-3.549-10.234zm-171.717 242.173h-229.792c-4.069-3.23-6.142-8.516-5.229-13.695.958-5.436 4.865-9.752 10.203-11.268 2.702-.77 4.887-2.803 5.844-5.436.957-2.634.587-5.593-.989-7.917-3.111-4.587-3.329-10.406-.569-15.186s7.916-7.503 13.438-7.099c2.805.208 5.55-.959 7.352-3.107 1.802-2.146 2.467-5.055 1.781-7.782-1.354-5.374.431-10.916 4.658-14.463 4.23-3.547 9.998-4.344 15.053-2.077 2.568 1.151 5.549 1 7.975-.404 2.429-1.402 4.049-3.909 4.335-6.702.565-5.513 4.139-10.112 9.325-11.999 5.185-1.89 10.879-.663 14.859 3.201 2.018 1.956 4.879 2.829 7.632 2.343 2.761-.488 5.139-2.29 6.362-4.815 2.417-4.988 7.348-8.086 12.866-8.086 5.519 0 10.45 3.098 12.868 8.089 1.226 2.528 3.607 4.327 6.367 4.813 2.763.488 5.613-.392 7.628-2.348 3.975-3.859 9.669-5.088 14.855-3.197 5.186 1.887 8.76 6.485 9.325 11.996.286 2.796 1.906 5.301 4.333 6.704s5.408 1.556 7.976.405c5.058-2.265 10.826-1.471 15.053 2.076 4.228 3.547 6.013 9.09 4.659 14.466-.685 2.725-.02 5.633 1.782 7.78 1.802 2.148 4.559 3.302 7.355 3.107 5.517-.405 10.675 2.319 13.435 7.099 2.76 4.779 2.541 10.598-.568 15.185-1.577 2.325-1.947 5.285-.99 7.919.958 2.635 3.144 4.666 5.851 5.437 5.331 1.514 9.237 5.831 10.197 11.267.912 5.178-1.162 10.465-5.23 13.694zm137.996 50.594h-90.961c4.046-4.463 7.25-9.765 9.3-15.703l1.96-5.678h81.385zm2.863-36.355h-78.281c-.025-2.911-.92-5.791-2.649-8.217-2.688-3.771-7.058-6.022-11.688-6.022h-30.121c2.111-5.061 2.84-10.704 1.854-16.295-1.528-8.662-6.701-15.934-14.051-20.194 2.891-7.99 2.18-16.886-2.217-24.5-.635-1.101-1.339-2.141-2.092-3.132l-9.742-123.683h164.898zm17.091-217.015h-167.259l-2.265-28.765h171.789z"/><path d="m169.977 381.701h-11.01c-4.135 0-7.487 3.351-7.487 7.487s3.351 7.487 7.487 7.487h11.01c4.135 0 7.487-3.351 7.487-7.487s-3.352-7.487-7.487-7.487z"/><path d="m148.529 410.127h-11.01c-4.135 0-7.486 3.351-7.486 7.487s3.351 7.487 7.486 7.487h11.01c4.135 0 7.487-3.351 7.487-7.487s-3.352-7.487-7.487-7.487z"/><path d="m244.849 381.701h-11.01c-4.135 0-7.487 3.351-7.487 7.487s3.351 7.487 7.487 7.487h11.01c4.135 0 7.487-3.351 7.487-7.487s-3.352-7.487-7.487-7.487z"/></g></g></svg>